<svg id="delete" xmlns="http://www.w3.org/2000/svg" width="17.002" height="20.934" viewBox="0 0 17.002 20.934">
  <path id="Pfad_4" data-name="Pfad 4" d="M222.888,154.7a.49.49,0,0,0-.49.49v9.266a.49.49,0,0,0,.98,0v-9.266A.49.49,0,0,0,222.888,154.7Zm0,0" transform="translate(-211.495 -147.119)" fill="#ff6161"/>
  <path id="Pfad_5" data-name="Pfad 5" d="M104.888,154.7a.49.49,0,0,0-.49.49v9.266a.49.49,0,0,0,.98,0v-9.266A.49.49,0,0,0,104.888,154.7Zm0,0" transform="translate(-99.28 -147.119)" fill="#ff6161"/>
  <path id="Pfad_6" data-name="Pfad 6" d="M1.389,6.231V18.309a2.7,2.7,0,0,0,.719,1.865,2.414,2.414,0,0,0,1.752.757h9.276a2.414,2.414,0,0,0,1.752-.757,2.7,2.7,0,0,0,.719-1.865V6.231a1.873,1.873,0,0,0-.48-3.683h-2.51V1.935A1.926,1.926,0,0,0,10.674,0H6.321A1.926,1.926,0,0,0,4.38,1.935v.613H1.87a1.873,1.873,0,0,0-.48,3.683ZM13.136,19.952H3.86a1.553,1.553,0,0,1-1.49-1.642V6.274H14.626V18.309a1.553,1.553,0,0,1-1.49,1.642ZM5.36,1.935A.945.945,0,0,1,6.321.979h4.353a.945.945,0,0,1,.961.956v.613H5.36ZM1.87,3.528H15.126a.882.882,0,1,1,0,1.765H1.87a.882.882,0,1,1,0-1.765Zm0,0" transform="translate(0.003 0.002)" fill="#ff6161"/>
  <path id="Pfad_7" data-name="Pfad 7" d="M163.888,154.7a.49.49,0,0,0-.49.49v9.266a.49.49,0,0,0,.98,0v-9.266A.49.49,0,0,0,163.888,154.7Zm0,0" transform="translate(-155.387 -147.119)" fill="#ff6161"/>
</svg>
